
==========================================================
Connaitre des informations sur un fichier vidéo: ffmpeg -i
==========================================================

::

    ffmpeg -i <nom_du_fichier>
 
::
 
	patrick@vercors:~/Vidéos/2012/croatie_2012/projets$ ffmpeg -i video_1.ogg
	ffmpeg version 0.8.3-4:0.8.3-0ubuntu0.12.04.1, Copyright (c) 2000-2012 the Libav developers
	built on Jun 12 2012 16:37:58 with gcc 4.6.3
	*** THIS PROGRAM IS DEPRECATED ***
	This program is only provided for compatibility and will be removed in a 
	future release. Please use avconv instead.
	Input #0, ogg, from 'video_1.ogg':
	Duration: 00:00:05.70, start: 0.000000, bitrate: 522 kb/s
	Stream #0.0: Video: theora, yuv420p, 720x480 [PAR 8:9 DAR 4:3], 29.97 fps, 
	              29.97 tbr, 29.97 tbn, 29.97 tbc
	Stream #0.1: Audio: vorbis, 44100 Hz, stereo, s16, 96 kb/s
	Metadata:
	ENCODER         : Lavf53.21.0
	At least one output file must be specified   
    


    
    



